<svg xmlns="http://www.w3.org/2000/svg" width="100" height="100" viewBox="0 0 256 256">
    <g fill="none" stroke-miterlimit="10" font-family="none" font-size="none" font-weight="none"
        style="mix-blend-mode:normal" text-anchor="none">
        <path fill="#fff"
            d="M72.144 114.821c0 3.184.341 5.76.939 7.654.682 1.893 1.53 3.957 2.725 6.192.427.688.597 1.376.597 1.978 0 .859-.512 1.718-1.616 2.582l-5.365 3.61c-.768.518-1.53.774-2.213.774-.854 0-1.702-.432-2.555-1.206a26.579 26.579 0 0 1-3.067-4.042c-.853-1.462-1.701-3.094-2.64-5.072-6.64 7.909-14.986 11.866-25.034 11.866-7.152 0-12.859-2.064-17.03-6.192-4.17-4.128-6.298-9.632-6.298-16.512 0-7.306 2.554-13.242 7.749-17.712 5.195-4.47 12.09-6.71 20.859-6.71 2.896 0 5.877.257 9.024.689 3.146.432 6.384 1.12 9.792 1.893v-6.277c0-6.533-1.36-11.093-4-13.76-2.726-2.667-7.323-3.957-13.878-3.957-2.981 0-6.042.341-9.194 1.12-3.152.773-6.214 1.717-9.195 2.922-1.36.603-2.384.944-2.981 1.12-.598.171-1.024.256-1.36.256-1.195 0-1.787-.858-1.787-2.666v-4.214c0-1.376.17-2.405.597-3.008.427-.602 1.195-1.205 2.384-1.808 2.982-1.546 6.555-2.837 10.731-3.872 4.17-1.12 8.597-1.632 13.28-1.632 10.133 0 17.541 2.32 22.31 6.966 4.682 4.645 7.066 11.696 7.066 21.152v27.86h.16zm-34.57 13.067c2.81 0 5.706-.517 8.767-1.547 3.067-1.03 5.792-2.922 8.091-5.504 1.36-1.632 2.384-3.44 2.896-5.504.512-2.064.853-4.56.853-7.482v-3.611a69.714 69.714 0 0 0-7.834-1.461 64.066 64.066 0 0 0-8.006-.518c-5.706 0-9.877 1.12-12.688 3.44-2.81 2.32-4.17 5.59-4.17 9.888 0 4.043 1.024 7.05 3.152 9.115 2.042 2.155 5.024 3.184 8.938 3.184zm68.373 9.29c-1.531 0-2.555-.255-3.238-.858-.682-.517-1.274-1.717-1.786-3.355L80.912 66.496c-.512-1.717-.768-2.837-.768-3.44 0-1.376.683-2.15 2.043-2.15h8.346c1.616 0 2.726.257 3.323.86.683.517 1.19 1.717 1.701 3.354l14.304 56.928 13.28-56.928c.427-1.717.939-2.837 1.616-3.355.683-.517 1.872-.858 3.408-.858h6.81c1.617 0 2.726.256 3.409.858.683.518 1.275 1.718 1.616 3.355l13.45 57.616 14.731-57.616c.512-1.717 1.11-2.837 1.702-3.355.682-.517 1.786-.858 3.322-.858h7.92c1.36 0 2.128.688 2.128 2.149 0 .432-.085.859-.17 1.376-.086.517-.256 1.205-.598 2.15l-20.517 66.469c-.512 1.717-1.11 2.837-1.787 3.354-.677.518-1.786.859-3.237.859h-7.323c-1.616 0-2.725-.256-3.408-.859-.682-.602-1.274-1.717-1.616-3.44L131.403 77.5l-13.11 55.38c-.426 1.718-.938 2.838-1.616 3.44-.682.604-1.872.86-3.408.86zm109.408 2.32c-4.427 0-8.854-.517-13.11-1.546-4.256-1.03-7.578-2.15-9.792-3.44-1.36-.773-2.298-1.632-2.64-2.405a6.098 6.098 0 0 1-.512-2.406v-4.384c0-1.808.683-2.666 1.958-2.666.512 0 1.024.085 1.53.256.512.17 1.275.517 2.128.858a45.915 45.915 0 0 0 9.366 3.008 50.65 50.65 0 0 0 10.133 1.03c5.365 0 9.536-.944 12.432-2.838 2.896-1.893 4.427-4.645 4.427-8.17 0-2.406-.768-4.384-2.3-6.022-1.53-1.632-4.426-3.093-8.596-4.47l-12.347-3.871c-6.213-1.979-10.81-4.901-13.621-8.773-2.811-3.782-4.256-7.995-4.256-12.47 0-3.61.768-6.794 2.298-9.546s3.579-5.158 6.128-7.051c2.555-1.979 5.45-3.44 8.854-4.47 3.408-1.023 6.98-1.455 10.73-1.455 1.872 0 3.83.085 5.707.341 1.957.256 3.744.603 5.536.944 1.701.432 3.323.859 4.853 1.376 1.53.517 2.726 1.03 3.579 1.547 1.195.688 2.043 1.376 2.555 2.149.512.688.768 1.632.768 2.837v4.043c0 1.808-.683 2.752-1.958 2.752-.682 0-1.786-.341-3.237-1.03-4.853-2.234-10.304-3.354-16.347-3.354-4.853 0-8.682.773-11.322 2.405-2.64 1.632-4 4.128-4 7.654 0 2.405.853 4.469 2.554 6.106 1.702 1.632 4.854 3.27 9.366 4.73l12.09 3.873c6.128 1.979 10.56 4.73 13.195 8.256 2.635 3.525 3.915 7.568 3.915 12.037 0 3.696-.768 7.05-2.214 9.974-1.53 2.922-3.578 5.504-6.213 7.568-2.64 2.149-5.792 3.696-9.45 4.816-3.846 1.205-7.846 1.808-12.187 1.808z" />
        <path fill="#f90"
            d="M231.445 181.29c-28.01 20.897-68.71 31.99-103.706 31.99-49.04 0-93.232-18.315-126.608-48.757-2.64-2.406-.256-5.675 2.896-3.782 36.101 21.152 80.629 33.968 126.693 33.968 31.077 0 65.221-6.533 96.635-19.952 4.688-2.15 8.688 3.094 4.09 6.534zm11.664-13.413c-3.578-4.645-23.67-2.234-32.778-1.12-2.726.342-3.152-2.064-.683-3.872 16.005-11.35 42.315-8.085 45.381-4.298 3.067 3.872-.853 30.442-15.834 43.168-2.3 1.978-4.512.944-3.494-1.632 3.408-8.512 10.987-27.691 7.408-32.246z" />
    </g>
</svg>