<svg xmlns="http://www.w3.org/2000/svg" viewBox="0 0 24 24">
    <path fill="#E44D26" d="M3.345 21.601 1.419 0h21.162l-1.928 21.598L11.987 24l-8.642-2.399z" />
    <path fill="#F16529" d="m12 22.164 7.002-1.942L20.65 1.766H12z" />
    <path fill="#EBEBEB"
        d="M12 9.778H8.495l-.243-2.713H12v-2.65H5.357l.063.711.651 7.3H12V9.778zm0 6.88-.012.003-2.95-.797-.189-2.113H6.19l.371 4.16 5.427 1.507.012-.004v-2.756z" />
    <path fill="#FFF"
        d="M11.991 9.778v2.649h3.263l-.308 3.436-2.955.797v2.756l5.431-1.505.04-.448.623-6.974.064-.712H11.991v.001zm0-5.363v2.65h6.399l.053-.596.121-1.343.063-.711h-6.636z" />
    <path fill="#DEDEDE" d="m12 23.996-.013.004H12v-.004z" />
    <path fill="#C64321"
        d="M12 7.065H8.252l.242 2.713H12V7.065zM12 0H1.419l1.926 21.601L11.987 24l.013-.004v-4.582l-.012.004-5.427-1.507-.371-4.16h2.659l.189 2.113 2.95.797.003-.001.009-.002v-4.231H6.071l-.651-7.3-.063-.712H12V0z" />
    <path fill="#CDCDCD"
        d="M8.849 13.751H6.19l.371 4.16 5.427 1.507.012-.004-.009.002V16.66l-.003.001-2.95-.797-.189-2.113zm3.142-9.336H5.357l.063.711.651 7.3H12h-.009V9.778H8.495l-.243-2.713H12h-.009v-2.65z" />
    <path fill="#DEDEDE"
        d="m12 16.658-.009.002v2.756l.009-.002v-2.756zm0-6.88h-.009v2.649H12V9.778zm0-5.363h-.009v2.65H12v-2.65z" />
</svg>